<?xml version="1.0" encoding="UTF-8" standalone="no"?>
<!DOCTYPE svg PUBLIC "-//W3C//DTD SVG 1.1//EN"
 "http://www.w3.org/Graphics/SVG/1.1/DTD/svg11.dtd">
<!-- Generated by graphviz version 2.28.0 (20110507.0327)
 -->
<!-- Title: insts: 308, get: 3567\nite: { ttl: 6841,\n &#160;terminal: 3887,\n &#160;var: 1789,\n &#160;irrelevantHead: 1,\n &#160;other: 1164 } Pages: 1 -->
<svg width="130pt" height="916pt"
 viewBox="0.00 0.00 130.00 916.00" xmlns="http://www.w3.org/2000/svg" xmlns:xlink="http://www.w3.org/1999/xlink">
<g id="graph1" class="graph" transform="scale(1 1) rotate(0) translate(4 912)">
<title>insts: 308, get: 3567\nite: { ttl: 6841,\n &#160;terminal: 3887,\n &#160;var: 1789,\n &#160;irrelevantHead: 1,\n &#160;other: 1164 }</title>
<polygon fill="white" stroke="white" points="-4,5 -4,-912 127,-912 127,5 -4,5"/>
<text text-anchor="middle" x="61" y="-72.4" font-family="Arial" font-size="12.00">insts: 308, get: 3567</text>
<text text-anchor="middle" x="61" y="-59.4" font-family="Arial" font-size="12.00">ite: { ttl: 6841,</text>
<text text-anchor="middle" x="61" y="-46.4" font-family="Arial" font-size="12.00"> &#160;terminal: 3887,</text>
<text text-anchor="middle" x="61" y="-33.4" font-family="Arial" font-size="12.00"> &#160;var: 1789,</text>
<text text-anchor="middle" x="61" y="-20.4" font-family="Arial" font-size="12.00"> &#160;irrelevantHead: 1,</text>
<text text-anchor="middle" x="61" y="-7.4" font-family="Arial" font-size="12.00"> &#160;other: 1164 }</text>
<!-- o12 -->
<g id="node2" class="node"><title>o12</title>
<polygon fill="none" stroke="green" points="75.25,-115.5 46.75,-115.5 46.75,-86.5 75.25,-86.5 75.25,-115.5"/>
<text text-anchor="middle" x="61" y="-97.9" font-family="Arial" font-size="12.00" fill="green">T</text>
</g>
<!-- o0 -->
<g id="node3" class="node"><title>o0</title>
<ellipse fill="none" stroke="black" cx="61" cy="-893" rx="14.25" ry="14.5"/>
<text text-anchor="middle" x="61" y="-890.8" font-family="Arial" font-size="9.00">0a</text>
</g>
<!-- o1 -->
<g id="node4" class="node"><title>o1</title>
<ellipse fill="none" stroke="black" cx="61" cy="-827" rx="14.25" ry="14.5"/>
<text text-anchor="middle" x="61" y="-824.8" font-family="Arial" font-size="9.00">0b</text>
</g>
<!-- o0&#45;&gt;o1 -->
<g id="edge25" class="edge"><title>o0&#45;&gt;o1</title>
<path fill="none" stroke="green" d="M61,-878.427C61,-870.706 61,-860.813 61,-851.838"/>
<polygon fill="green" stroke="green" points="64.5001,-851.553 61,-841.553 57.5001,-851.553 64.5001,-851.553"/>
</g>
<!-- o2 -->
<g id="node5" class="node"><title>o2</title>
<ellipse fill="none" stroke="black" cx="61" cy="-761" rx="14.25" ry="14.5"/>
<text text-anchor="middle" x="61" y="-758.8" font-family="Arial" font-size="9.00">0c</text>
</g>
<!-- o1&#45;&gt;o2 -->
<g id="edge23" class="edge"><title>o1&#45;&gt;o2</title>
<path fill="none" stroke="green" d="M61,-812.427C61,-804.706 61,-794.813 61,-785.838"/>
<polygon fill="green" stroke="green" points="64.5001,-785.553 61,-775.553 57.5001,-785.553 64.5001,-785.553"/>
</g>
<!-- o3 -->
<g id="node6" class="node"><title>o3</title>
<ellipse fill="none" stroke="black" cx="61" cy="-695" rx="14.25" ry="14.5"/>
<text text-anchor="middle" x="61" y="-692.8" font-family="Arial" font-size="9.00">1a</text>
</g>
<!-- o2&#45;&gt;o3 -->
<g id="edge21" class="edge"><title>o2&#45;&gt;o3</title>
<path fill="none" stroke="green" d="M61,-746.427C61,-738.706 61,-728.813 61,-719.838"/>
<polygon fill="green" stroke="green" points="64.5001,-719.553 61,-709.553 57.5001,-719.553 64.5001,-719.553"/>
</g>
<!-- o4 -->
<g id="node7" class="node"><title>o4</title>
<ellipse fill="none" stroke="black" cx="61" cy="-629" rx="14.25" ry="14.5"/>
<text text-anchor="middle" x="61" y="-626.8" font-family="Arial" font-size="9.00">1b</text>
</g>
<!-- o3&#45;&gt;o4 -->
<g id="edge19" class="edge"><title>o3&#45;&gt;o4</title>
<path fill="none" stroke="green" d="M61,-680.427C61,-672.706 61,-662.813 61,-653.838"/>
<polygon fill="green" stroke="green" points="64.5001,-653.553 61,-643.553 57.5001,-653.553 64.5001,-653.553"/>
</g>
<!-- o5 -->
<g id="node8" class="node"><title>o5</title>
<ellipse fill="none" stroke="black" cx="61" cy="-563" rx="14.25" ry="14.5"/>
<text text-anchor="middle" x="61" y="-560.8" font-family="Arial" font-size="9.00">1c</text>
</g>
<!-- o4&#45;&gt;o5 -->
<g id="edge17" class="edge"><title>o4&#45;&gt;o5</title>
<path fill="none" stroke="green" d="M61,-614.427C61,-606.706 61,-596.813 61,-587.838"/>
<polygon fill="green" stroke="green" points="64.5001,-587.553 61,-577.553 57.5001,-587.553 64.5001,-587.553"/>
</g>
<!-- o6 -->
<g id="node9" class="node"><title>o6</title>
<ellipse fill="none" stroke="black" cx="61" cy="-497" rx="14.25" ry="14.5"/>
<text text-anchor="middle" x="61" y="-494.8" font-family="Arial" font-size="9.00">2a</text>
</g>
<!-- o5&#45;&gt;o6 -->
<g id="edge15" class="edge"><title>o5&#45;&gt;o6</title>
<path fill="none" stroke="green" d="M61,-548.427C61,-540.706 61,-530.813 61,-521.838"/>
<polygon fill="green" stroke="green" points="64.5001,-521.553 61,-511.553 57.5001,-521.553 64.5001,-521.553"/>
</g>
<!-- o7 -->
<g id="node10" class="node"><title>o7</title>
<ellipse fill="none" stroke="black" cx="61" cy="-431" rx="14.25" ry="14.5"/>
<text text-anchor="middle" x="61" y="-428.8" font-family="Arial" font-size="9.00">2b</text>
</g>
<!-- o6&#45;&gt;o7 -->
<g id="edge13" class="edge"><title>o6&#45;&gt;o7</title>
<path fill="none" stroke="green" d="M61,-482.427C61,-474.706 61,-464.813 61,-455.838"/>
<polygon fill="green" stroke="green" points="64.5001,-455.553 61,-445.553 57.5001,-455.553 64.5001,-455.553"/>
</g>
<!-- o8 -->
<g id="node11" class="node"><title>o8</title>
<ellipse fill="none" stroke="black" cx="61" cy="-365" rx="14.25" ry="14.5"/>
<text text-anchor="middle" x="61" y="-362.8" font-family="Arial" font-size="9.00">2c</text>
</g>
<!-- o7&#45;&gt;o8 -->
<g id="edge11" class="edge"><title>o7&#45;&gt;o8</title>
<path fill="none" stroke="green" d="M61,-416.427C61,-408.706 61,-398.813 61,-389.838"/>
<polygon fill="green" stroke="green" points="64.5001,-389.553 61,-379.553 57.5001,-389.553 64.5001,-389.553"/>
</g>
<!-- o9 -->
<g id="node12" class="node"><title>o9</title>
<ellipse fill="none" stroke="black" cx="61" cy="-299" rx="14.25" ry="14.5"/>
<text text-anchor="middle" x="61" y="-296.8" font-family="Arial" font-size="9.00">3a</text>
</g>
<!-- o8&#45;&gt;o9 -->
<g id="edge9" class="edge"><title>o8&#45;&gt;o9</title>
<path fill="none" stroke="green" d="M61,-350.427C61,-342.706 61,-332.813 61,-323.838"/>
<polygon fill="green" stroke="green" points="64.5001,-323.553 61,-313.553 57.5001,-323.553 64.5001,-323.553"/>
</g>
<!-- o10 -->
<g id="node13" class="node"><title>o10</title>
<ellipse fill="none" stroke="black" cx="61" cy="-233" rx="14.25" ry="14.5"/>
<text text-anchor="middle" x="61" y="-230.8" font-family="Arial" font-size="9.00">3b</text>
</g>
<!-- o9&#45;&gt;o10 -->
<g id="edge7" class="edge"><title>o9&#45;&gt;o10</title>
<path fill="none" stroke="green" d="M61,-284.427C61,-276.706 61,-266.813 61,-257.838"/>
<polygon fill="green" stroke="green" points="64.5001,-257.553 61,-247.553 57.5001,-257.553 64.5001,-257.553"/>
</g>
<!-- o11 -->
<g id="node14" class="node"><title>o11</title>
<ellipse fill="none" stroke="black" cx="61" cy="-167" rx="14.25" ry="14.5"/>
<text text-anchor="middle" x="61" y="-164.8" font-family="Arial" font-size="9.00">3c</text>
</g>
<!-- o10&#45;&gt;o11 -->
<g id="edge5" class="edge"><title>o10&#45;&gt;o11</title>
<path fill="none" stroke="green" d="M61,-218.427C61,-210.706 61,-200.813 61,-191.838"/>
<polygon fill="green" stroke="green" points="64.5001,-191.553 61,-181.553 57.5001,-191.553 64.5001,-191.553"/>
</g>
<!-- o11&#45;&gt;o12 -->
<g id="edge3" class="edge"><title>o11&#45;&gt;o12</title>
<path fill="none" stroke="green" d="M61,-152.427C61,-144.706 61,-134.813 61,-125.838"/>
<polygon fill="green" stroke="green" points="64.5001,-125.553 61,-115.553 57.5001,-125.553 64.5001,-125.553"/>
</g>
</g>
</svg>
