<?xml version="1.0" encoding="UTF-8" standalone="no"?>
<!DOCTYPE svg PUBLIC "-//W3C//DTD SVG 1.1//EN"
 "http://www.w3.org/Graphics/SVG/1.1/DTD/svg11.dtd">
<!-- Generated by graphviz version 2.28.0 (20110507.0327)
 -->
<!-- Title: insts: 268, get: undefined\nite: undefined Pages: 1 -->
<svg width="154pt" height="864pt"
 viewBox="0.00 0.00 154.00 864.00" xmlns="http://www.w3.org/2000/svg" xmlns:xlink="http://www.w3.org/1999/xlink">
<g id="graph1" class="graph" transform="scale(1 1) rotate(0) translate(4 860)">
<title>insts: 268, get: undefined\nite: undefined</title>
<polygon fill="white" stroke="white" points="-4,5 -4,-860 151,-860 151,5 -4,5"/>
<text text-anchor="middle" x="73" y="-20.4" font-family="Arial" font-size="12.00">insts: 268, get: undefined</text>
<text text-anchor="middle" x="73" y="-7.4" font-family="Arial" font-size="12.00">ite: undefined</text>
<!-- o12 -->
<g id="node2" class="node"><title>o12</title>
<polygon fill="none" stroke="green" points="87.25,-63.5 58.75,-63.5 58.75,-34.5 87.25,-34.5 87.25,-63.5"/>
<text text-anchor="middle" x="73" y="-45.9" font-family="Arial" font-size="12.00" fill="green">T</text>
</g>
<!-- o0 -->
<g id="node3" class="node"><title>o0</title>
<ellipse fill="none" stroke="black" cx="73" cy="-841" rx="14.25" ry="14.5"/>
<text text-anchor="middle" x="73" y="-838.8" font-family="Arial" font-size="9.00">0a</text>
</g>
<!-- o1 -->
<g id="node4" class="node"><title>o1</title>
<ellipse fill="none" stroke="black" cx="73" cy="-775" rx="14.25" ry="14.5"/>
<text text-anchor="middle" x="73" y="-772.8" font-family="Arial" font-size="9.00">0b</text>
</g>
<!-- o0&#45;&gt;o1 -->
<g id="edge25" class="edge"><title>o0&#45;&gt;o1</title>
<path fill="none" stroke="green" d="M73,-826.427C73,-818.706 73,-808.813 73,-799.838"/>
<polygon fill="green" stroke="green" points="76.5001,-799.553 73,-789.553 69.5001,-799.553 76.5001,-799.553"/>
</g>
<!-- o2 -->
<g id="node5" class="node"><title>o2</title>
<ellipse fill="none" stroke="black" cx="73" cy="-709" rx="14.25" ry="14.5"/>
<text text-anchor="middle" x="73" y="-706.8" font-family="Arial" font-size="9.00">0c</text>
</g>
<!-- o1&#45;&gt;o2 -->
<g id="edge23" class="edge"><title>o1&#45;&gt;o2</title>
<path fill="none" stroke="green" d="M73,-760.427C73,-752.706 73,-742.813 73,-733.838"/>
<polygon fill="green" stroke="green" points="76.5001,-733.553 73,-723.553 69.5001,-733.553 76.5001,-733.553"/>
</g>
<!-- o3 -->
<g id="node6" class="node"><title>o3</title>
<ellipse fill="none" stroke="black" cx="73" cy="-643" rx="14.25" ry="14.5"/>
<text text-anchor="middle" x="73" y="-640.8" font-family="Arial" font-size="9.00">1a</text>
</g>
<!-- o2&#45;&gt;o3 -->
<g id="edge21" class="edge"><title>o2&#45;&gt;o3</title>
<path fill="none" stroke="green" d="M73,-694.427C73,-686.706 73,-676.813 73,-667.838"/>
<polygon fill="green" stroke="green" points="76.5001,-667.553 73,-657.553 69.5001,-667.553 76.5001,-667.553"/>
</g>
<!-- o4 -->
<g id="node7" class="node"><title>o4</title>
<ellipse fill="none" stroke="black" cx="73" cy="-577" rx="14.25" ry="14.5"/>
<text text-anchor="middle" x="73" y="-574.8" font-family="Arial" font-size="9.00">1b</text>
</g>
<!-- o3&#45;&gt;o4 -->
<g id="edge19" class="edge"><title>o3&#45;&gt;o4</title>
<path fill="none" stroke="green" d="M73,-628.427C73,-620.706 73,-610.813 73,-601.838"/>
<polygon fill="green" stroke="green" points="76.5001,-601.553 73,-591.553 69.5001,-601.553 76.5001,-601.553"/>
</g>
<!-- o5 -->
<g id="node8" class="node"><title>o5</title>
<ellipse fill="none" stroke="black" cx="73" cy="-511" rx="14.25" ry="14.5"/>
<text text-anchor="middle" x="73" y="-508.8" font-family="Arial" font-size="9.00">1c</text>
</g>
<!-- o4&#45;&gt;o5 -->
<g id="edge17" class="edge"><title>o4&#45;&gt;o5</title>
<path fill="none" stroke="green" d="M73,-562.427C73,-554.706 73,-544.813 73,-535.838"/>
<polygon fill="green" stroke="green" points="76.5001,-535.553 73,-525.553 69.5001,-535.553 76.5001,-535.553"/>
</g>
<!-- o6 -->
<g id="node9" class="node"><title>o6</title>
<ellipse fill="none" stroke="black" cx="73" cy="-445" rx="14.25" ry="14.5"/>
<text text-anchor="middle" x="73" y="-442.8" font-family="Arial" font-size="9.00">2a</text>
</g>
<!-- o5&#45;&gt;o6 -->
<g id="edge15" class="edge"><title>o5&#45;&gt;o6</title>
<path fill="none" stroke="green" d="M73,-496.427C73,-488.706 73,-478.813 73,-469.838"/>
<polygon fill="green" stroke="green" points="76.5001,-469.553 73,-459.553 69.5001,-469.553 76.5001,-469.553"/>
</g>
<!-- o7 -->
<g id="node10" class="node"><title>o7</title>
<ellipse fill="none" stroke="black" cx="73" cy="-379" rx="14.25" ry="14.5"/>
<text text-anchor="middle" x="73" y="-376.8" font-family="Arial" font-size="9.00">2b</text>
</g>
<!-- o6&#45;&gt;o7 -->
<g id="edge13" class="edge"><title>o6&#45;&gt;o7</title>
<path fill="none" stroke="green" d="M73,-430.427C73,-422.706 73,-412.813 73,-403.838"/>
<polygon fill="green" stroke="green" points="76.5001,-403.553 73,-393.553 69.5001,-403.553 76.5001,-403.553"/>
</g>
<!-- o8 -->
<g id="node11" class="node"><title>o8</title>
<ellipse fill="none" stroke="black" cx="73" cy="-313" rx="14.25" ry="14.5"/>
<text text-anchor="middle" x="73" y="-310.8" font-family="Arial" font-size="9.00">2c</text>
</g>
<!-- o7&#45;&gt;o8 -->
<g id="edge11" class="edge"><title>o7&#45;&gt;o8</title>
<path fill="none" stroke="green" d="M73,-364.427C73,-356.706 73,-346.813 73,-337.838"/>
<polygon fill="green" stroke="green" points="76.5001,-337.553 73,-327.553 69.5001,-337.553 76.5001,-337.553"/>
</g>
<!-- o9 -->
<g id="node12" class="node"><title>o9</title>
<ellipse fill="none" stroke="black" cx="73" cy="-247" rx="14.25" ry="14.5"/>
<text text-anchor="middle" x="73" y="-244.8" font-family="Arial" font-size="9.00">3a</text>
</g>
<!-- o8&#45;&gt;o9 -->
<g id="edge9" class="edge"><title>o8&#45;&gt;o9</title>
<path fill="none" stroke="green" d="M73,-298.427C73,-290.706 73,-280.813 73,-271.838"/>
<polygon fill="green" stroke="green" points="76.5001,-271.553 73,-261.553 69.5001,-271.553 76.5001,-271.553"/>
</g>
<!-- o10 -->
<g id="node13" class="node"><title>o10</title>
<ellipse fill="none" stroke="black" cx="73" cy="-181" rx="14.25" ry="14.5"/>
<text text-anchor="middle" x="73" y="-178.8" font-family="Arial" font-size="9.00">3b</text>
</g>
<!-- o9&#45;&gt;o10 -->
<g id="edge7" class="edge"><title>o9&#45;&gt;o10</title>
<path fill="none" stroke="green" d="M73,-232.427C73,-224.706 73,-214.813 73,-205.838"/>
<polygon fill="green" stroke="green" points="76.5001,-205.553 73,-195.553 69.5001,-205.553 76.5001,-205.553"/>
</g>
<!-- o11 -->
<g id="node14" class="node"><title>o11</title>
<ellipse fill="none" stroke="black" cx="73" cy="-115" rx="14.25" ry="14.5"/>
<text text-anchor="middle" x="73" y="-112.8" font-family="Arial" font-size="9.00">3c</text>
</g>
<!-- o10&#45;&gt;o11 -->
<g id="edge5" class="edge"><title>o10&#45;&gt;o11</title>
<path fill="none" stroke="green" d="M73,-166.427C73,-158.706 73,-148.813 73,-139.838"/>
<polygon fill="green" stroke="green" points="76.5001,-139.553 73,-129.553 69.5001,-139.553 76.5001,-139.553"/>
</g>
<!-- o11&#45;&gt;o12 -->
<g id="edge3" class="edge"><title>o11&#45;&gt;o12</title>
<path fill="none" stroke="green" d="M73,-100.427C73,-92.7057 73,-82.8128 73,-73.8378"/>
<polygon fill="green" stroke="green" points="76.5001,-73.5532 73,-63.5532 69.5001,-73.5532 76.5001,-73.5532"/>
</g>
</g>
</svg>
